<?xml version="1.0" encoding="UTF-8"?>
<svg id="Layer_2" data-name="Layer 2" xmlns="http://www.w3.org/2000/svg" viewBox="0 0 247.35 92.19">
  <g id="Layer_1-2" data-name="Layer 1">
    <g>
      <g>
        <path d="m78.36,71.31c0,5.58-4.52,10.11-10.11,10.11h0c-5.58,0-10.11-4.52-10.11-10.11v-17.82c0-2.9-2.35-5.25-5.25-5.25h-1.38c-2.9,0-5.25,2.35-5.25,5.25v33.46c0,2.9,2.35,5.25,5.25,5.25h33.46c2.9,0,5.25-2.35,5.25-5.25v-33.46c0-2.9-2.35-5.25-5.25-5.25h-1.38c-2.9,0-5.25,2.35-5.25,5.25v17.82Z"/>
        <path d="m0,53.48v33.46c0,2.9,2.35,5.25,5.25,5.25h33.46c2.9,0,5.25-2.35,5.25-5.25v-33.46c0-2.9-2.35-5.25-5.25-5.25H5.25c-2.9,0-5.25,2.35-5.25,5.25Zm21.98,23.37c-3.67,0-6.64-2.97-6.64-6.64s2.97-6.64,6.64-6.64,6.64,2.97,6.64,6.64-2.97,6.64-6.64,6.64Z"/>
        <path d="m11.87,20.88c0-5.58,4.52-10.11,10.11-10.11h0c5.58,0,10.11,4.52,10.11,10.11v17.82c0,2.9,2.35,5.25,5.25,5.25h1.38c2.9,0,5.25-2.35,5.25-5.25V5.25c0-2.9-2.35-5.25-5.25-5.25H5.25C2.35,0,0,2.35,0,5.25v33.46c0,2.9,2.35,5.25,5.25,5.25h1.38c2.9,0,5.25-2.35,5.25-5.25v-17.82Z"/>
        <path d="m84.98,0h-33.46C48.62,0,46.28,2.35,46.28,5.25v33.46c0,2.9,2.35,5.25,5.25,5.25h33.46c2.9,0,5.25-2.35,5.25-5.25V5.25C90.23,2.35,87.88,0,84.98,0Zm1.45,35.82c0,2.4-1.94,4.34-4.34,4.34h-27.69c-2.4,0-4.34-1.94-4.34-4.34V8.13c0-2.4,1.94-4.34,4.34-4.34h27.69c2.4,0,4.34,1.94,4.34,4.34v27.69Z"/>
        <circle cx="21.97" cy="37.38" r="6.64"/>
        <circle cx="68.25" cy="21.98" r="6.64"/>
      </g>
      <g>
        <g>
          <path d="m108.22,35.98c0,.69.13,1.49.38,2.41.25.92.74,1.79,1.48,2.61.73.82,1.79,1.52,3.16,2.1,1.37.57,3.18.86,5.43.86,1.24,0,2.46-.09,3.68-.27s2.31-.5,3.3-.96c.98-.46,1.79-1.1,2.41-1.92s.93-1.9.93-3.23c0-.96-.22-1.76-.65-2.41-.44-.64-1.05-1.18-1.86-1.61s-1.75-.81-2.85-1.13c-1.1-.32-2.29-.64-3.58-.96l-5.29-1.24c-2.02-.46-3.96-.96-5.84-1.51-1.88-.55-3.54-1.34-4.98-2.37-1.44-1.03-2.61-2.38-3.51-4.06-.89-1.67-1.34-3.86-1.34-6.57,0-.92.1-1.92.31-3.02s.56-2.21,1.07-3.33c.5-1.12,1.2-2.22,2.1-3.3.89-1.08,2.05-2.02,3.47-2.82,1.42-.8,3.12-1.45,5.09-1.96,1.97-.5,4.28-.76,6.94-.76,3.76,0,6.87.55,9.35,1.65s4.44,2.45,5.91,4.06c1.47,1.6,2.5,3.33,3.09,5.19s.89,3.54.89,5.05h-9.9c-.09-.55-.24-1.25-.45-2.1-.21-.85-.65-1.66-1.34-2.44-.69-.78-1.68-1.45-2.99-2.03-1.31-.57-3.08-.86-5.33-.86-.96,0-1.96.1-2.99.31-1.03.21-1.96.54-2.78,1-.83.46-1.5,1.07-2.03,1.82-.53.76-.79,1.68-.79,2.78,0,.96.17,1.75.51,2.37.34.62.78,1.11,1.31,1.48.53.37,1.1.64,1.72.82.62.18,1.18.34,1.68.48l12.03,2.96c1.69.41,3.32.92,4.88,1.51,1.56.6,2.93,1.4,4.12,2.41,1.19,1.01,2.14,2.27,2.85,3.78.71,1.51,1.07,3.37,1.07,5.57,0,2.47-.38,4.59-1.13,6.36-.76,1.76-1.74,3.24-2.96,4.43-1.22,1.19-2.56,2.14-4.02,2.85s-2.92,1.25-4.36,1.61c-1.44.37-2.78.61-4.02.72-1.24.11-2.22.17-2.96.17-4.49,0-8.12-.57-10.9-1.72s-4.91-2.55-6.43-4.23c-1.51-1.67-2.52-3.47-3.02-5.4-.5-1.92-.76-3.64-.76-5.16h9.9Z"/>
          <path d="m156.2,51.18h-10.31V1.82h10.31v49.36Z"/>
          <path d="m186.79,51.18h-10.31V10.55h-14.92V1.82h40.14v8.73h-14.92v40.63Z"/>
          <path d="m247.35,33.92c0,3.25-.47,6.05-1.41,8.39-.94,2.34-2.29,4.26-4.06,5.77-1.76,1.51-3.9,2.62-6.39,3.33-2.5.71-5.31,1.07-8.42,1.07-1.15,0-2.4-.08-3.75-.24-1.35-.16-2.73-.47-4.12-.93-1.4-.46-2.77-1.07-4.12-1.82-1.35-.76-2.58-1.75-3.68-2.99-1.33-1.51-2.28-3.27-2.85-5.26-.57-1.99-.91-4.23-1-6.7V1.82h10.52v32.03c0,1.74.23,3.23.69,4.47.46,1.24,1.09,2.26,1.89,3.06.8.8,1.74,1.4,2.82,1.79,1.08.39,2.21.58,3.4.58,3.57,0,6.13-.81,7.66-2.44s2.3-3.95,2.3-6.98V1.82h10.52v32.1Z"/>
        </g>
        <g>
          <path d="m105.87,89.18c-1.55-.69-2.87-1.61-3.96-2.78l.47-.51c1.08,1.11,2.35,1.99,3.81,2.63,1.45.64,3.31.96,5.56.96,1.97,0,3.62-.34,4.96-1.03,1.34-.68,2.33-1.55,2.97-2.61.64-1.05.96-2.11.96-3.17v-.99c0-1.71-.56-3.04-1.67-4-1.11-.96-2.88-1.86-5.31-2.72l-3.81-1.37c-2.51-.88-4.29-1.83-5.33-2.85-1.04-1.01-1.56-2.29-1.56-3.83v-.94c0-1.03.34-2.06,1.01-3.1s1.7-1.91,3.08-2.61,3.1-1.05,5.16-1.05c1.86,0,3.54.34,5.07,1.01s2.83,1.63,3.92,2.89l-.47.47c-2.22-2.45-5.06-3.68-8.52-3.68-1.91,0-3.5.31-4.77.94-1.27.63-2.2,1.41-2.8,2.35-.6.94-.9,1.87-.9,2.78v.94c0,1.37.49,2.51,1.48,3.42.98.91,2.67,1.8,5.07,2.65l3.72,1.28c2.51.88,4.37,1.85,5.59,2.89,1.21,1.04,1.82,2.52,1.82,4.43v1.07c0,1.23-.36,2.42-1.07,3.57-.71,1.16-1.8,2.1-3.25,2.85s-3.24,1.11-5.35,1.11c-2.37,0-4.33-.34-5.88-1.03Z"/>
          <path d="m145.22,60.43h-9.46v29.27h-.77v-29.27h-9.46v-.69h19.68v.69Z"/>
          <path d="m171.7,80.07c0,2.94-.83,5.36-2.48,7.27-1.66,1.91-4.19,2.87-7.62,2.87s-5.96-.95-7.6-2.87c-1.64-1.91-2.46-4.34-2.46-7.27v-20.33h.77v20.37c0,2.77.75,5.03,2.27,6.78,1.51,1.75,3.85,2.63,7.02,2.63s5.51-.88,7.04-2.63,2.29-4.01,2.29-6.78v-20.37h.77v20.33Z"/>
          <path d="m198.64,62.95c2.07,2.14,3.1,5.06,3.1,8.77v5.22c0,3.99-1.14,7.12-3.42,9.37-2.28,2.25-5.53,3.38-9.76,3.38h-5.86v-29.95h6.93c3.94,0,6.94,1.07,9.01,3.21Zm2.33,8.73c0-3.51-.97-6.26-2.91-8.26-1.94-2-4.77-3-8.47-3h-6.12v28.58h5.09c3.99,0,7.06-1.05,9.2-3.17,2.14-2.11,3.21-5.08,3.21-8.9v-5.26Z"/>
          <path d="m214.02,60.43v28.58h3.08v.69h-6.93v-.69h3.08v-28.58h-3.08v-.69h6.93v.69h-3.08Z"/>
          <path d="m244.72,62.63c1.75,2.27,2.63,5.27,2.63,9.01v6.46c0,3.54-.89,6.44-2.65,8.71-1.77,2.27-4.52,3.4-8.26,3.4s-6.49-1.13-8.26-3.4c-1.77-2.27-2.65-5.17-2.65-8.71v-6.46c0-3.79.89-6.81,2.68-9.05,1.78-2.24,4.53-3.36,8.24-3.36s6.52,1.13,8.28,3.4Zm-15.94.45c-1.66,2.11-2.48,4.96-2.48,8.56v6.46c0,3.37.82,6.11,2.46,8.24,1.64,2.12,4.2,3.19,7.68,3.19s6.08-1.06,7.7-3.19c1.62-2.12,2.44-4.87,2.44-8.24v-6.46c0-3.57-.8-6.41-2.42-8.54-1.61-2.12-4.19-3.19-7.72-3.19s-6,1.06-7.66,3.17Z"/>
        </g>
      </g>
    </g>
  </g>
</svg>