<?xml version="1.0" encoding="UTF-8"?>
<svg id="Layer_2" data-name="Layer 2" xmlns="http://www.w3.org/2000/svg" viewBox="0 0 141 144.06">
  <g id="Layer_1-2" data-name="Layer 1">
    <g>
      <path d="m122.45,111.43c0,8.72-7.07,15.79-15.79,15.79h0c-8.72,0-15.79-7.07-15.79-15.79v-27.86c0-4.53-3.67-8.2-8.2-8.2h-2.15c-4.53,0-8.2,3.67-8.2,8.2v52.29c0,4.53,3.67,8.2,8.2,8.2h52.29c4.53,0,8.2-3.67,8.2-8.2v-52.29c0-4.53-3.67-8.2-8.2-8.2h-2.15c-4.53,0-8.2,3.67-8.2,8.2v27.86Z"/>
      <path d="m0,83.58v52.29c0,4.53,3.67,8.2,8.2,8.2h52.29c4.53,0,8.2-3.67,8.2-8.2v-52.29c0-4.53-3.67-8.2-8.2-8.2H8.2c-4.53,0-8.2,3.67-8.2,8.2Zm34.34,36.53c-5.73,0-10.38-4.65-10.38-10.38s4.65-10.38,10.38-10.38,10.38,4.65,10.38,10.38-4.65,10.38-10.38,10.38Z"/>
      <path d="m18.55,32.63c0-8.72,7.07-15.79,15.79-15.79h0c8.72,0,15.79,7.07,15.79,15.79v27.86c0,4.53,3.67,8.2,8.2,8.2h2.15c4.53,0,8.2-3.67,8.2-8.2V8.2c0-4.53-3.67-8.2-8.2-8.2H8.2C3.67,0,0,3.67,0,8.2v52.29c0,4.53,3.67,8.2,8.2,8.2h2.15c4.53,0,8.2-3.67,8.2-8.2v-27.86Z"/>
      <path d="m132.8,0h-52.29C75.99,0,72.32,3.67,72.32,8.2v52.29c0,4.53,3.67,8.2,8.2,8.2h52.29c4.53,0,8.2-3.67,8.2-8.2V8.2C141,3.67,137.33,0,132.8,0Zm2.27,55.97c0,3.75-3.04,6.78-6.78,6.78h-43.27c-3.75,0-6.78-3.04-6.78-6.78V12.71c0-3.75,3.04-6.78,6.78-6.78h43.27c3.75,0,6.78,3.04,6.78,6.78v43.27Z"/>
      <circle cx="34.34" cy="58.42" r="10.38"/>
      <circle cx="106.66" cy="34.34" r="10.38"/>
    </g>
  </g>
</svg>