<?xml version="1.0" encoding="UTF-8"?>
<svg id="Layer_2" data-name="Layer 2" xmlns="http://www.w3.org/2000/svg" viewBox="0 0 129.02 204.33">
  <defs>
    <style>
      .cls-1 {
        fill: #fff;
      }
    </style>
  </defs>
  <g id="Layer_1-2" data-name="Layer 1">
    <g>
      <g>
        <path class="cls-1" d="m110.55,100.21c0,7.84-6.36,14.2-14.2,14.2h0c-7.84,0-14.2-6.36-14.2-14.2v-25.05c0-4.07-3.3-7.37-7.37-7.37h-1.94c-4.07,0-7.37,3.3-7.37,7.37v47.02c0,4.07,3.3,7.37,7.37,7.37h47.02c4.07,0,7.37-3.3,7.37-7.37v-47.02c0-4.07-3.3-7.37-7.37-7.37h-1.94c-4.07,0-7.37,3.3-7.37,7.37v25.05Z"/>
        <path class="cls-1" d="m.43,75.16v47.02c0,4.07,3.3,7.37,7.37,7.37h47.02c4.07,0,7.37-3.3,7.37-7.37v-47.02c0-4.07-3.3-7.37-7.37-7.37H7.8c-4.07,0-7.37,3.3-7.37,7.37Zm30.88,32.85c-5.16,0-9.34-4.18-9.34-9.34s4.18-9.34,9.34-9.34,9.34,4.18,9.34,9.34-4.18,9.34-9.34,9.34Z"/>
        <path class="cls-1" d="m17.11,29.34c0-7.84,6.36-14.2,14.2-14.2h0c7.84,0,14.2,6.36,14.2,14.2v25.05c0,4.07,3.3,7.37,7.37,7.37h1.94c4.07,0,7.37-3.3,7.37-7.37V7.37c0-4.07-3.3-7.37-7.37-7.37H7.8C3.73,0,.43,3.3.43,7.37v47.02c0,4.07,3.3,7.37,7.37,7.37h1.94c4.07,0,7.37-3.3,7.37-7.37v-25.05Z"/>
        <path class="cls-1" d="m119.85,0h-47.02C68.76,0,65.46,3.3,65.46,7.37v47.02c0,4.07,3.3,7.37,7.37,7.37h47.02c4.07,0,7.37-3.3,7.37-7.37V7.37C127.23,3.3,123.93,0,119.85,0Zm2.04,50.34c0,3.37-2.73,6.1-6.1,6.1h-38.91c-3.37,0-6.1-2.73-6.1-6.1V11.43c0-3.37,2.73-6.1,6.1-6.1h38.91c3.37,0,6.1,2.73,6.1,6.1v38.91Z"/>
        <circle class="cls-1" cx="31.31" cy="52.54" r="9.34"/>
        <circle class="cls-1" cx="96.34" cy="30.88" r="9.34"/>
      </g>
      <g>
        <path class="cls-1" d="m8.57,169.49c0,.6.11,1.29.33,2.08.22.79.64,1.55,1.28,2.26.63.71,1.55,1.32,2.74,1.81,1.19.5,2.76.74,4.7.74,1.07,0,2.13-.08,3.18-.24s2-.44,2.86-.83c.85-.4,1.55-.95,2.08-1.67s.8-1.65.8-2.8c0-.83-.19-1.53-.57-2.08-.38-.56-.91-1.02-1.61-1.4s-1.52-.7-2.47-.98c-.95-.28-1.99-.56-3.1-.83l-4.58-1.07c-1.75-.4-3.43-.83-5.06-1.31-1.63-.48-3.07-1.16-4.31-2.05-1.25-.89-2.26-2.06-3.04-3.51-.77-1.45-1.16-3.34-1.16-5.68,0-.79.09-1.67.27-2.62s.48-1.91.92-2.89c.44-.97,1.04-1.92,1.81-2.86.77-.93,1.77-1.75,3.01-2.44,1.23-.69,2.7-1.26,4.4-1.7,1.71-.44,3.71-.66,6.01-.66,3.25,0,5.95.48,8.09,1.43s3.85,2.12,5.12,3.51c1.27,1.39,2.16,2.89,2.68,4.49s.77,3.07.77,4.37h-8.57c-.08-.48-.21-1.08-.39-1.82-.18-.73-.57-1.44-1.16-2.11-.6-.67-1.46-1.26-2.59-1.76-1.13-.5-2.67-.74-4.61-.74-.83,0-1.7.09-2.59.27-.89.18-1.7.47-2.41.86-.71.4-1.3.92-1.76,1.58-.46.65-.68,1.46-.68,2.41,0,.83.15,1.52.45,2.05.3.54.67.96,1.13,1.28.46.32.95.56,1.49.71.54.16,1.02.3,1.46.42l10.41,2.56c1.47.36,2.88.79,4.22,1.31,1.35.52,2.54,1.21,3.57,2.08,1.03.87,1.85,1.96,2.47,3.27.61,1.31.92,2.92.92,4.82,0,2.14-.33,3.98-.98,5.5-.65,1.53-1.51,2.81-2.56,3.84-1.05,1.03-2.21,1.85-3.48,2.47s-2.53,1.08-3.78,1.4c-1.25.32-2.41.53-3.48.63-1.07.1-1.92.15-2.56.15-3.89,0-7.03-.5-9.43-1.49s-4.25-2.21-5.56-3.66c-1.31-1.45-2.18-3-2.62-4.67-.44-1.67-.65-3.15-.65-4.46h8.57Z"/>
        <path class="cls-1" d="m50.11,182.65h-8.93v-42.73h8.93v42.73Z"/>
        <path class="cls-1" d="m76.59,182.65h-8.93v-35.17h-12.91v-7.56h34.75v7.56h-12.91v35.17Z"/>
        <path class="cls-1" d="m129.02,167.71c0,2.82-.41,5.24-1.22,7.26-.81,2.02-1.98,3.69-3.51,5-1.53,1.31-3.37,2.27-5.53,2.89-2.16.61-4.59.92-7.29.92-.99,0-2.07-.07-3.24-.21-1.17-.14-2.36-.41-3.57-.8-1.21-.4-2.4-.92-3.57-1.58-1.17-.66-2.23-1.52-3.18-2.59-1.15-1.31-1.97-2.83-2.47-4.55-.5-1.73-.78-3.66-.86-5.8v-28.33h9.1v27.73c0,1.51.2,2.8.6,3.87.4,1.07.94,1.96,1.64,2.65.69.69,1.51,1.21,2.44,1.55.93.34,1.91.51,2.95.51,3.09,0,5.31-.7,6.63-2.11s1.99-3.42,1.99-6.04v-28.15h9.1v27.79Z"/>
      </g>
      <g>
        <path class="cls-1" d="m37.34,203.96c-.55-.24-1.03-.58-1.41-.99l.17-.18c.39.4.84.71,1.36.94.52.23,1.18.34,1.99.34.7,0,1.29-.12,1.77-.37.48-.24.83-.55,1.06-.93.23-.38.34-.75.34-1.13v-.35c0-.61-.2-1.09-.6-1.43-.4-.34-1.03-.67-1.89-.97l-1.36-.49c-.9-.32-1.53-.65-1.9-1.02-.37-.36-.56-.82-.56-1.37v-.34c0-.37.12-.74.36-1.11s.61-.68,1.1-.93,1.11-.37,1.84-.37c.66,0,1.26.12,1.81.36s1.01.58,1.4,1.03l-.17.17c-.79-.88-1.81-1.31-3.04-1.31-.68,0-1.25.11-1.7.34s-.79.5-1,.84c-.21.34-.32.67-.32.99v.34c0,.49.18.9.53,1.22.35.33.95.64,1.81.95l1.33.46c.9.32,1.56.66,1.99,1.03.43.37.65.9.65,1.58v.38c0,.44-.13.86-.38,1.27-.25.41-.64.75-1.16,1.02s-1.16.4-1.91.4c-.85,0-1.54-.12-2.1-.37Z"/>
        <path class="cls-1" d="m51.38,193.7h-3.38v10.44h-.27v-10.44h-3.38v-.24h7.02v.24Z"/>
        <path class="cls-1" d="m60.83,200.71c0,1.05-.3,1.91-.89,2.6-.59.68-1.5,1.02-2.72,1.02s-2.13-.34-2.71-1.02-.88-1.55-.88-2.6v-7.25h.28v7.27c0,.99.27,1.79.81,2.42.54.63,1.37.94,2.5.94s1.97-.31,2.51-.94.82-1.43.82-2.42v-7.27h.27v7.25Z"/>
        <path class="cls-1" d="m70.44,194.6c.74.76,1.11,1.81,1.11,3.13v1.86c0,1.43-.41,2.54-1.22,3.34-.81.8-1.98,1.21-3.48,1.21h-2.09v-10.69h2.47c1.41,0,2.48.38,3.21,1.15Zm.83,3.12c0-1.25-.35-2.24-1.04-2.95-.69-.71-1.7-1.07-3.02-1.07h-2.18v10.2h1.82c1.43,0,2.52-.38,3.28-1.13.76-.75,1.15-1.81,1.15-3.18v-1.88Z"/>
        <path class="cls-1" d="m75.93,193.7v10.2h1.1v.24h-2.47v-.24h1.1v-10.2h-1.1v-.24h2.47v.24h-1.1Z"/>
        <path class="cls-1" d="m86.89,194.48c.63.81.94,1.88.94,3.21v2.31c0,1.26-.32,2.3-.95,3.11-.63.81-1.61,1.21-2.95,1.21s-2.32-.4-2.95-1.21c-.63-.81-.95-1.84-.95-3.11v-2.31c0-1.35.32-2.43.95-3.23.64-.8,1.62-1.2,2.94-1.2s2.33.41,2.95,1.21Zm-5.69.16c-.59.75-.89,1.77-.89,3.05v2.31c0,1.2.29,2.18.88,2.94s1.5,1.14,2.74,1.14,2.17-.38,2.75-1.14c.58-.76.87-1.74.87-2.94v-2.31c0-1.27-.29-2.29-.86-3.05-.58-.76-1.49-1.14-2.76-1.14s-2.14.38-2.73,1.13Z"/>
      </g>
    </g>
  </g>
</svg>