<?xml version="1.0" encoding="UTF-8"?>
<svg id="Layer_2" data-name="Layer 2" xmlns="http://www.w3.org/2000/svg" viewBox="0 0 68.68 68.68">
  <g id="Layer_1-2" data-name="Layer 1">
    <g>
      <path d="m60.49,0H8.2C3.67,0,0,3.67,0,8.2v52.29c0,4.53,3.67,8.2,8.2,8.2h52.29c4.53,0,8.2-3.67,8.2-8.2V8.2c0-4.53-3.67-8.2-8.2-8.2Zm2.27,55.97c0,3.75-3.04,6.78-6.78,6.78H12.71c-3.75,0-6.78-3.04-6.78-6.78V12.71c0-3.75,3.04-6.78,6.78-6.78h43.27c3.75,0,6.78,3.04,6.78,6.78v43.27Z"/>
      <circle cx="34.34" cy="34.34" r="10.38"/>
    </g>
  </g>
</svg>